<svg xmlns="http://www.w3.org/2000/svg" viewBox="0 0 69.523 19.874"><defs><clipPath clipPathUnits="userSpaceOnUse" id="a"><path d="M0 0h792v612H0z"/></clipPath></defs><g clip-path="url(#a)" transform="matrix(.35278 0 0 -.35278 -13.027 105.952)" fill="#fff"><path d="m71.058 268.733-11.412 27.339h-1.042l-11.65-27.281c-6.873-16.155-8.125-18.844-10.026-19.225v-.404c.456.002.993.01 1.622.019 1.217.018 2.732.04 4.662.04 1.221 0 2.466-.016 3.67-.031 1.079-.014 2.103-.026 3.094-.03v.396c-.6.088-.993.31-1.228.69-.693 1.118.209 3.464 2.147 8.243l.074.185h15.12l.075-.19c1.903-4.923 2.772-7.17 2.081-8.267-.224-.355-.606-.572-1.165-.66v-.39c2.375.054 4.97.054 7.481.054 2.913 0 4.908 0 6.285-.048v.392c-1.869.359-2.954 2.81-9.789 19.168M53.33 265.02l.19.57.272.712c3.284 8.569 4.166 10.872 4.571 12.259l.062.214h.507l.06-.217c.438-1.565 1.331-4.187 4.6-12.96l.192-.578zm58.44 6.036v-.402c2.455-.511 2.573-3.714 2.573-9.644 0-1.1 0-2.937-.06-4.5l-.01-.223-.218-.052c-1.207-.288-2.62-.427-4.316-.427-9.44 0-16.031 6.863-16.031 16.689 0 4.804 1.724 8.909 4.988 11.87 3.213 2.918 7.61 4.46 12.718 4.46 2.865 0 5.369-.443 7.24-1.282 1.475-.702 2.414-1.72 2.799-3.025h.437c.059 4.774.17 6.969.338 10.257l.005.097c-1.346.28-2.77.51-4.454.722-2.347.26-4.332.296-6.126.296-16.248 0-27.164-9.498-27.164-23.634v-.06c0-14.173 10.219-23.695 25.429-23.695 5.146 0 9.202.525 12.738 1.652a198.083 198.083 0 0 0-.111 6.667v3.949c0 7.509 0 9.509 2.153 9.889v.394a186.36 186.36 0 0 0-6.284-.11c-2.116 0-4.35.052-6.644.112m109.66 24.289v-.33c1.435-.215 2.042-1.11 2.353-3.378.34-2.473.34-6.714.34-14.414 0-5.61.053-7.96.109-10.448l.017-.796h-.615l-.09.099c-3.405 3.847-5.562 6.16-8.244 8.842-4.212 4.335-10.728 10.909-20.554 20.793h-.957v-26.865c0-16.398 0-18.962-2.631-19.35v-.325c1.426.048 3.419.048 6.105.048 2.343 0 4.763 0 6.643-.051v.383c-2.572.33-2.573 2.838-2.573 18.756 0 4.7-.05 6.682-.104 8.78l-.023.909h.558l.09-.101c3.474-3.972 5.966-6.504 8.421-8.96 2.527-2.564 5.888-5.893 10.541-10.502 2.807-2.781 6.075-6.017 9.892-9.812h.958v28.182c0 15.366 0 17.814 2.334 18.207v.33c-1.38-.048-3.395-.048-6.106-.048-2.07 0-4.62 0-6.464.05m-45.303-6.309c.422.791.838 1.587 1.241 2.395a73.23 73.23 0 0 1 1.991 4.328c.625 1.476 1.216 2.98 1.696 4.577-1.489-.75-2.868-1.593-4.213-2.465a73.603 73.603 0 0 1-3.917-2.713 97.737 97.737 0 0 1-2.499-1.922c-3.395 1.747-7.356 2.717-11.69 2.717-14.458 0-24.952-10.116-24.952-24.054 0-5.872 2.11-11.174 5.643-15.253a96.978 96.978 0 0 1-1.966-3.73 73.322 73.322 0 0 1-1.988-4.332c-.623-1.477-1.21-2.983-1.689-4.583 1.493.748 2.874 1.589 4.22 2.459a73.294 73.294 0 0 1 3.922 2.71 97.281 97.281 0 0 1 3.356 2.603c3.664-2.156 7.994-3.389 12.675-3.389 14.02 0 24.592 10.393 24.592 24.173v.06c0 6.591-2.384 12.297-6.422 16.419m-2.557-16.837c0-4.514-1.526-8.654-4.297-11.658-2.814-3.052-6.748-4.732-11.076-4.732-8.764 0-15.373 7.02-15.373 16.33 0 9.531 6.54 16.45 15.552 16.45 8.52 0 15.194-7.174 15.194-16.331z"/></g></svg>