<?xml version="1.0" encoding="UTF-8" standalone="no"?>
<svg
   xmlns:dc="http://purl.org/dc/elements/1.1/"
   xmlns:cc="http://creativecommons.org/ns#"
   xmlns:rdf="http://www.w3.org/1999/02/22-rdf-syntax-ns#"
   xmlns:svg="http://www.w3.org/2000/svg"
   xmlns="http://www.w3.org/2000/svg"
   xmlns:sodipodi="http://sodipodi.sourceforge.net/DTD/sodipodi-0.dtd"
   xmlns:inkscape="http://www.inkscape.org/namespaces/inkscape"
   viewBox="0 0 19.999999 20"
   version="1.1"
   id="svg11"
   sodipodi:docname="agon-o-mark.svg"
   width="20"
   height="20"
   inkscape:version="1.0.2-2 (e86c870879, 2021-01-15)">
  <metadata
     id="metadata15">
    <rdf:RDF>
      <cc:Work
         rdf:about="">
        <dc:format>image/svg+xml</dc:format>
        <dc:type
           rdf:resource="http://purl.org/dc/dcmitype/StillImage" />
        <dc:title></dc:title>
      </cc:Work>
    </rdf:RDF>
  </metadata>
  <sodipodi:namedview
     pagecolor="#ffffff"
     bordercolor="#666666"
     borderopacity="1"
     objecttolerance="10"
     gridtolerance="10"
     guidetolerance="10"
     inkscape:pageopacity="0"
     inkscape:pageshadow="2"
     inkscape:window-width="1920"
     inkscape:window-height="1017"
     id="namedview13"
     showgrid="false"
     fit-margin-top="0"
     fit-margin-left="0"
     fit-margin-right="0"
     fit-margin-bottom="0"
     inkscape:zoom="22.538564"
     inkscape:cx="5.4828069"
     inkscape:cy="11.172216"
     inkscape:window-x="-8"
     inkscape:window-y="-8"
     inkscape:window-maximized="1"
     inkscape:current-layer="svg11" />
  <defs
     id="defs5">
    <clipPath
       clipPathUnits="userSpaceOnUse"
       id="a">
      <path
         d="M 0,0 H 792 V 612 H 0 Z"
         id="path2" />
    </clipPath>
  </defs>
  <path
     d="m 16.336118,4.049483 c 0.148873,-0.279049 0.29563,-0.5598619 0.4378,-0.8449081 0.250625,-0.5011916 0.484878,-1.0104049 0.702385,-1.5268318 0.220488,-0.5207033 0.42898,-1.05128444 0.598315,-1.6146741 -0.52529,0.264585 -1.011773,0.56197854 -1.486262,0.8696027 -0.470822,0.304034 -0.931677,0.6232319 -1.38184,0.9570921 C 14.909024,2.1110237 14.61512,2.3370675 14.324919,2.567807 13.127218,1.9515008 11.729857,1.6093042 10.200908,1.6093042 c -5.100493,0 -8.802566,3.5687225 -8.802566,8.4857708 0,2.071524 0.744365,3.941963 1.990737,5.380953 -0.240697,0.433545 -0.47194,0.872271 -0.693565,1.315869 -0.250276,0.501679 -0.484175,1.011363 -0.701327,1.528243 -0.219782,0.521056 -0.426864,1.052343 -0.595845,1.616791 0.5267,-0.263879 1.013889,-0.560567 1.488731,-0.867486 0.471445,-0.303591 0.93289,-0.622438 1.383603,-0.956034 0.401279,-0.297443 0.796016,-0.603611 1.18393,-0.918286 1.292586,0.760594 2.820123,1.195571 4.471486,1.195571 4.945976,0 8.675566,-3.666442 8.675566,-8.5277509 v -0.021167 c 0,-2.325173 -0.841027,-4.3381356 -2.265553,-5.7922948 m -0.902058,5.9397569 c 0,1.5924488 -0.538343,3.0529588 -1.515896,4.1127098 -0.992723,1.076684 -2.38056,1.669355 -3.907391,1.669355 -3.091764,0 -5.423287,-2.476516 -5.423287,-5.760898 0,-3.3623462 2.307181,-5.803231 5.486434,-5.803231 3.005686,0 5.36014,2.5308437 5.36014,5.7612501 z"
     id="path7"
     style="stroke-width:0.35278"
     sodipodi:nodetypes="cccccccsscccccccssscscsssss" />
</svg>
