<svg xmlns="http://www.w3.org/2000/svg" style="height:512px;width:512px;" viewBox="0 0 512 512"><path d="M255.963 21.015c-11.542 0-23.073 4.274-31.87 13.073-8.247 8.25-12.556 19.015-13.07 29.82-34.695 8.072-67.694 25.4-94.73 52.442-27.015 27.02-44.516 60.09-52.577 94.748-10.732.56-21.325 4.876-29.52 13.073-17.595 17.598-17.595 46.155 0 63.753 8.195 8.197 18.787 12.513 29.52 13.074 8.093 34.657 25.71 67.433 52.725 94.453 27.028 27.034 59.912 44.646 94.581 52.736.497 10.786 4.823 21.424 13.071 29.673 17.594 17.599 46.145 17.451 63.74-.147 8.195-8.197 12.51-18.645 13.071-29.38 34.678-8.055 67.546-25.694 94.582-52.735 27.066-27.072 44.667-60.001 52.724-94.747 10.732-.562 21.325-4.877 29.52-13.074 17.595-17.598 17.742-46.008.146-63.606-8.248-8.25-19.03-12.576-29.814-13.074-8.079-34.67-25.564-67.728-52.577-94.747-26.988-26.993-59.954-44.351-94.582-52.442-.515-10.805-4.824-21.571-13.071-29.82-8.798-8.8-20.328-13.073-31.87-13.073Zm43.325 56.701c31.623 7.644 61.673 23.933 86.358 48.623 24.685 24.69 40.824 54.598 48.465 86.227-7.334 2-14.355 5.838-20.12 11.605-17.594 17.598-17.594 46.155 0 63.753 5.717 5.72 12.694 9.456 19.973 11.458-7.684 31.586-23.81 61.568-48.465 86.227-24.635 24.64-54.528 40.798-86.064 48.476-1.987-7.347-5.837-14.211-11.602-19.978-17.595-17.598-46.145-17.599-63.74 0-5.758 5.76-9.455 12.653-11.455 19.978-31.61-7.659-61.671-23.785-86.358-48.476-24.654-24.659-40.649-54.656-48.319-86.227 7.315-1.994 14.231-5.714 19.974-11.458 17.595-17.598 17.594-46.155 0-63.753-5.765-5.767-12.775-9.617-20.12-11.605 7.676-31.543 23.83-61.588 48.465-86.227 24.655-24.66 54.631-40.643 86.21-48.329a45.237 45.237 0 0 0 11.603 19.978c17.594 17.598 46.146 17.598 63.74 0 5.77-5.771 9.47-12.919 11.455-20.272zm-43.325 106.647c7.462.029 14.872 2.976 20.56 8.667l42.445 42.452c11.38 11.381 11.38 29.75 0 41.131l-42.444 42.453c-11.379 11.381-29.744 11.528-41.122.147l-42.591-42.6c-11.379-11.38-11.38-29.896 0-41.277l42.59-42.453c5.69-5.691 13.1-8.546 20.562-8.52z" fill-opacity=".02" stroke="#ffffff" stroke-width="15"/></svg>