<svg xmlns="http://www.w3.org/2000/svg" viewBox="0 0 6 7.5"  fill="#ffffff">
  <path d="M.695.757a.64.64 0 000 1.28h.284V1.72H.695a.323.323 0 010-.645h.472c.176.526.239 1.089.172 1.636a3.575 3.575 0 01-.53 1.457l-.05.08.045.081c.287.523.72.922 1.22 1.15l-.392 1.264h2.736l-.389-1.264c.491-.227.913-.622 1.203-1.15l.045-.082-.049-.08a3.564 3.564 0 01-.516-1.456 3.75 3.75 0 01.172-1.637h.472v.001a.322.322 0 010 .645h-.284v.317h.284a.64.64 0 000-1.28H3zm.81.318h.545v4.061a2.354 2.354 0 01-.922-.88c.28-.47.462-.988.526-1.507a4.049 4.049 0 00-.149-1.674zm.862 0h.474v4.281h-.138a2.028 2.028 0 01-.336-.084zm.792 0h.474v4.199c-.108.036-.22.065-.333.082h-.14zm.791 0h.545a4.048 4.048 0 00-.148 1.674c.066.534.242 1.053.512 1.507a2.34 2.34 0 01-.909.88zM2.297 5.674h1.41l.23.752H2.064z"/>
</svg>
