<svg xmlns="http://www.w3.org/2000/svg" viewBox="0 0 6 7.5">
  <path d="M.296.194L.02.402l.827 1.604.428.17.053-.04.254.338a2.25 2.25 0 00-.15 3.372L.49 7.096l.279.21.934-1.238a2.242 2.242 0 002.595 0l.935 1.238.278-.21-.943-1.25a2.248 2.248 0 00-.15-3.372l.254-.337.053.04.428-.171.827-1.604-.275-.208-1.317 1.234-.047.459.053.04-.265.35a2.241 2.241 0 00-2.257 0l-.264-.35.053-.04-.047-.46zm4.91.946l-.305.59-.124.05-.07-.053.014-.133zm-4.412 0l.485.454.013.133-.07.052-.124-.049zM3 2.321c1.05 0 1.905.855 1.905 1.906 0 1.05-.855 1.905-1.905 1.905a1.907 1.907 0 01-1.905-1.905c0-1.05.854-1.906 1.905-1.906zm0 .44a1.466 1.466 0 100 2.932A1.466 1.466 0 003 2.76zm0 .349a1.118 1.118 0 010 2.233c-.616 0-1.117-.5-1.117-1.116 0-.616.501-1.117 1.117-1.117z"/>
</svg>
