<svg xmlns="http://www.w3.org/2000/svg" viewBox="0 0 6 7.5" fill="#ffffff">
  <path d="M3.59 6.19A2.227 2.227 0 001.662 4.23l.285-.813a1.904 1.904 0 003.14.318C4.906 4.92 4.406 5.744 3.59 6.19m-1.887.372l.462-1.318-.3-.105-.489 1.396a5.006 5.006 0 01-.493-.081l.67-1.913c.935.08 1.682.852 1.729 1.792-.254.1-.515.163-.769.197l.279-.793-.3-.105-.327.93a4.69 4.69 0 01-.462 0m2.628-4.196a.19.19 0 11.381 0 .19.19 0 01-.381 0m-1.412 0a.19.19 0 11-.381 0 .19.19 0 01.381 0M2.561 1.34l.312.54a.49.49 0 00-.145-.023.509.509 0 000 1.016c.24 0 .44-.167.493-.39l.404.7.404-.7a.508.508 0 10.348-.603l.312-.54c.32.29.523.709.523 1.175a1.59 1.59 0 01-1.587 1.587 1.589 1.589 0 01-1.587-1.587c0-.466.203-.884.523-1.175M3.625.93c.295 0 .57.082.807.222L3.625 2.55 2.818 1.15c.237-.14.512-.222.807-.222M5.53 2.516a1.9 1.9 0 00-.94-1.64A1.893 1.893 0 002.4 1.06a1.9 1.9 0 00-.626 1.896L.47 6.67l.16.048c.038.011.588.17 1.31.17.48 0 1.038-.07 1.569-.304 1.244-.548 1.905-1.77 1.97-3.634.032-.14.05-.285.05-.434"/>
</svg>
