<svg xmlns="http://www.w3.org/2000/svg" viewBox="0 0 6 7.5">
  <path d="M3.329 6.82h-.492l-.203-1.55h.898zm-1.06-1.867L1.908 4.2h2.351l-.366.752h-1.62zm.698-1.07c.041-.108.092-.212.151-.31.065-.107.14-.208.22-.314.07-.093.143-.19.208-.292a1.81 1.81 0 00.284-1.16c.267.22.459.56.507.924.05.37-.029.767-.225 1.153zM1.63 2.168c.069-.179.185-.338.307-.507l.05-.067c.139-.193.292-.423.351-.691A.858.858 0 002.35.837a1.129 1.129 0 01.297.254c.207.258.286.618.206.94-.076.302-.275.559-.486.83-.176.226-.357.46-.47.73a2.3 2.3 0 01-.145-.237c-.214-.406-.259-.839-.123-1.186m3.137 1.716H4.46c.175-.398.242-.807.19-1.195-.079-.6-.465-1.13-.983-1.351l-.314-.134.1.326a1.509 1.509 0 01-.175 1.266c-.06.092-.125.18-.195.273-.08.107-.164.219-.237.339-.09.148-.162.308-.214.476h-.5l.012-.048c.086-.282.274-.524.473-.78.222-.285.45-.58.543-.948A1.428 1.428 0 002.894.892a1.443 1.443 0 00-.647-.448L2.01.361l.03.25a.678.678 0 01-.011.222c-.047.21-.18.407-.3.574l-.049.067c-.128.177-.262.361-.346.577-.17.434-.119.962.137 1.45.068.129.15.255.246.382h-.315l.67 1.386h.242l.245 1.868h1.05l.244-1.868h.239z"/>
</svg>
